<svg xmlns="http://www.w3.org/2000/svg" width="1024" height="300" viewBox="0 0 1024 300">
  <defs>
    <filter id="shadow" x="-20%" y="-20%" width="140%" height="140%">
      <feDropShadow dx="0" dy="3" stdDeviation="4" flood-color="#0f172a" flood-opacity="0.15"/>
    </filter>
    <marker id="arrow" viewBox="0 0 10 10" refX="9" refY="5" markerWidth="7" markerHeight="7" orient="auto-start-reverse">
      <path d="M 0 0 L 10 5 L 0 10 z" fill="#64748b"/>
    </marker>
  </defs>
  <rect width="100%" height="100%" fill="#f8fafc"/>
  <text x="512.0" y="34" text-anchor="middle" font-family="Inter, Arial, sans-serif" font-size="22" font-weight="800" fill="#0f172a">EAOL Development &amp; Release Flow</text>
  <g font-family="Inter, Arial, sans-serif">
  
    <rect x="40" y="100" width="140" height="86" rx="14" fill="#ffffff" stroke="#2563eb" stroke-width="2" filter="url(#shadow)"/>
    <rect x="40" y="100" width="140" height="30" rx="14" fill="#2563eb"/>
    <text x="110.0" y="120" text-anchor="middle" font-size="13" font-weight="700" fill="white">Plan</text>
    <text x="54" y="152" font-size="12" fill="#0f172a">Architecture, ADR, backlog</text>
    <line x1="180" y1="143" x2="218" y2="143" stroke="#64748b" stroke-width="2" marker-end="url(#arrow)"/>
    <rect x="218" y="100" width="140" height="86" rx="14" fill="#ffffff" stroke="#0891b2" stroke-width="2" filter="url(#shadow)"/>
    <rect x="218" y="100" width="140" height="30" rx="14" fill="#0891b2"/>
    <text x="288.0" y="120" text-anchor="middle" font-size="13" font-weight="700" fill="white">Code</text>
    <text x="232" y="152" font-size="12" fill="#0f172a">Feature branches, contracts</text>
    <line x1="358" y1="143" x2="396" y2="143" stroke="#64748b" stroke-width="2" marker-end="url(#arrow)"/>
    <rect x="396" y="100" width="140" height="86" rx="14" fill="#ffffff" stroke="#16a34a" stroke-width="2" filter="url(#shadow)"/>
    <rect x="396" y="100" width="140" height="30" rx="14" fill="#16a34a"/>
    <text x="466.0" y="120" text-anchor="middle" font-size="13" font-weight="700" fill="white">Quality</text>
    <text x="410" y="152" font-size="12" fill="#0f172a">Tests, lint, eval IA</text>
    <line x1="536" y1="143" x2="574" y2="143" stroke="#64748b" stroke-width="2" marker-end="url(#arrow)"/>
    <rect x="574" y="100" width="140" height="86" rx="14" fill="#ffffff" stroke="#7c3aed" stroke-width="2" filter="url(#shadow)"/>
    <rect x="574" y="100" width="140" height="30" rx="14" fill="#7c3aed"/>
    <text x="644.0" y="120" text-anchor="middle" font-size="13" font-weight="700" fill="white">Security</text>
    <text x="588" y="152" font-size="12" fill="#0f172a">SAST/SCA, SBOM, scans</text>
    <line x1="714" y1="143" x2="752" y2="143" stroke="#64748b" stroke-width="2" marker-end="url(#arrow)"/>
    <rect x="752" y="100" width="140" height="86" rx="14" fill="#ffffff" stroke="#ea580c" stroke-width="2" filter="url(#shadow)"/>
    <rect x="752" y="100" width="140" height="30" rx="14" fill="#ea580c"/>
    <text x="822.0" y="120" text-anchor="middle" font-size="13" font-weight="700" fill="white">Package</text>
    <text x="766" y="152" font-size="12" fill="#0f172a">OCI images, Helm</text>
    <line x1="892" y1="143" x2="930" y2="143" stroke="#64748b" stroke-width="2" marker-end="url(#arrow)"/>
    <rect x="930" y="100" width="140" height="86" rx="14" fill="#ffffff" stroke="#dc2626" stroke-width="2" filter="url(#shadow)"/>
    <rect x="930" y="100" width="140" height="30" rx="14" fill="#dc2626"/>
    <text x="1000.0" y="120" text-anchor="middle" font-size="13" font-weight="700" fill="white">Deploy</text>
    <text x="944" y="152" font-size="12" fill="#0f172a">Dev → Staging → Prod</text>
    <text x="512" y="245" text-anchor="middle" font-size="15" font-weight="700" fill="#334155">Gates obligatoires : tenant isolation • audit • API/event contracts • rollback • observability</text>
  </g>
</svg>