<svg xmlns="http://www.w3.org/2000/svg" width="1024" height="380" viewBox="0 0 1024 380">
  <defs>
    <filter id="shadow" x="-20%" y="-20%" width="140%" height="140%">
      <feDropShadow dx="0" dy="3" stdDeviation="4" flood-color="#0f172a" flood-opacity="0.15"/>
    </filter>
    <marker id="arrow" viewBox="0 0 10 10" refX="9" refY="5" markerWidth="7" markerHeight="7" orient="auto-start-reverse">
      <path d="M 0 0 L 10 5 L 0 10 z" fill="#64748b"/>
    </marker>
  </defs>
  <rect width="100%" height="100%" fill="#f8fafc"/>
  <text x="512.0" y="34" text-anchor="middle" font-family="Inter, Arial, sans-serif" font-size="22" font-weight="800" fill="#0f172a">EAOL Target Enterprise Architecture</text>
  <g font-family="Inter, Arial, sans-serif">
  
    <rect x="40" y="70" width="180" height="80" rx="14" fill="#ffffff" stroke="#2563eb" stroke-width="2" filter="url(#shadow)"/>
    <rect x="40" y="70" width="180" height="30" rx="14" fill="#2563eb"/>
    <text x="130.0" y="90" text-anchor="middle" font-size="13" font-weight="700" fill="white">Experience Plane</text>
    <text x="54" y="122" font-size="12" fill="#0f172a">Web, Admin, API</text>
    
    <rect x="280" y="70" width="180" height="80" rx="14" fill="#ffffff" stroke="#7c3aed" stroke-width="2" filter="url(#shadow)"/>
    <rect x="280" y="70" width="180" height="30" rx="14" fill="#7c3aed"/>
    <text x="370.0" y="90" text-anchor="middle" font-size="13" font-weight="700" fill="white">Trust Plane</text>
    <text x="294" y="122" font-size="12" fill="#0f172a">SSO, Policy, Audit</text>
    
    <rect x="520" y="70" width="180" height="80" rx="14" fill="#ffffff" stroke="#ea580c" stroke-width="2" filter="url(#shadow)"/>
    <rect x="520" y="70" width="180" height="30" rx="14" fill="#ea580c"/>
    <text x="610.0" y="90" text-anchor="middle" font-size="13" font-weight="700" fill="white">Intelligence Plane</text>
    <text x="534" y="122" font-size="12" fill="#0f172a">Reasoning, LLM, Eval</text>
    
    <rect x="760" y="70" width="180" height="80" rx="14" fill="#ffffff" stroke="#16a34a" stroke-width="2" filter="url(#shadow)"/>
    <rect x="760" y="70" width="180" height="30" rx="14" fill="#16a34a"/>
    <text x="850.0" y="90" text-anchor="middle" font-size="13" font-weight="700" fill="white">Action Plane</text>
    <text x="774" y="122" font-size="12" fill="#0f172a">BPMN, HITL, Actions</text>
    
    <rect x="160" y="230" width="220" height="95" rx="14" fill="#ffffff" stroke="#0891b2" stroke-width="2" filter="url(#shadow)"/>
    <rect x="160" y="230" width="220" height="30" rx="14" fill="#0891b2"/>
    <text x="270.0" y="250" text-anchor="middle" font-size="13" font-weight="700" fill="white">Integration Fabric</text>
    <text x="174" y="282" font-size="12" fill="#0f172a">ERP, CRM, ITSM, BI, HRIS</text>
    
    <rect x="460" y="230" width="220" height="95" rx="14" fill="#ffffff" stroke="#334155" stroke-width="2" filter="url(#shadow)"/>
    <rect x="460" y="230" width="220" height="30" rx="14" fill="#334155"/>
    <text x="570.0" y="250" text-anchor="middle" font-size="13" font-weight="700" fill="white">Knowledge Plane</text>
    <text x="474" y="282" font-size="12" fill="#0f172a">Graph, Vector, Documents</text>
    
    <rect x="760" y="230" width="220" height="95" rx="14" fill="#ffffff" stroke="#dc2626" stroke-width="2" filter="url(#shadow)"/>
    <rect x="760" y="230" width="220" height="30" rx="14" fill="#dc2626"/>
    <text x="870.0" y="250" text-anchor="middle" font-size="13" font-weight="700" fill="white">Enterprise Systems</text>
    <text x="774" y="282" font-size="12" fill="#0f172a">Read-only then write-back</text>
    <line x1="220" y1="110" x2="280" y2="110" stroke="#64748b" stroke-width="2" marker-end="url(#arrow)"/><text x="250.0" y="104.0" text-anchor="middle" font-size="11" fill="#475569">auth/policy</text><line x1="460" y1="110" x2="520" y2="110" stroke="#64748b" stroke-width="2" marker-end="url(#arrow)"/><text x="490.0" y="104.0" text-anchor="middle" font-size="11" fill="#475569">governed context</text><line x1="700" y1="110" x2="760" y2="110" stroke="#64748b" stroke-width="2" marker-end="url(#arrow)"/><text x="730.0" y="104.0" text-anchor="middle" font-size="11" fill="#475569">recommend</text><line x1="270" y1="230" x2="130" y2="150" stroke="#64748b" stroke-width="2" marker-end="url(#arrow)"/><text x="200.0" y="184.0" text-anchor="middle" font-size="11" fill="#475569">users ask</text><line x1="380" y1="278" x2="460" y2="278" stroke="#64748b" stroke-width="2" marker-end="url(#arrow)"/><text x="420.0" y="272.0" text-anchor="middle" font-size="11" fill="#475569">normalize</text><line x1="570" y1="230" x2="610" y2="150" stroke="#64748b" stroke-width="2" marker-end="url(#arrow)"/><text x="590.0" y="184.0" text-anchor="middle" font-size="11" fill="#475569">retrieve</text><line x1="870" y1="230" x2="870" y2="150" stroke="#64748b" stroke-width="2" marker-end="url(#arrow)"/><text x="870.0" y="184.0" text-anchor="middle" font-size="11" fill="#475569">approve</text><line x1="760" y1="278" x2="680" y2="278" stroke="#64748b" stroke-width="2" marker-end="url(#arrow)"/><text x="720.0" y="272.0" text-anchor="middle" font-size="11" fill="#475569">events/actions</text>
  </g>
</svg>