<svg xmlns="http://www.w3.org/2000/svg" width="1024" height="390" viewBox="0 0 1024 390">
  <defs>
    <filter id="shadow" x="-20%" y="-20%" width="140%" height="140%">
      <feDropShadow dx="0" dy="3" stdDeviation="4" flood-color="#0f172a" flood-opacity="0.15"/>
    </filter>
    <marker id="arrow" viewBox="0 0 10 10" refX="9" refY="5" markerWidth="7" markerHeight="7" orient="auto-start-reverse">
      <path d="M 0 0 L 10 5 L 0 10 z" fill="#64748b"/>
    </marker>
  </defs>
  <rect width="100%" height="100%" fill="#f8fafc"/>
  <text x="512.0" y="34" text-anchor="middle" font-family="Inter, Arial, sans-serif" font-size="22" font-weight="800" fill="#0f172a">EAOL Kubernetes / OKD Deployment Design</text>
  <g font-family="Inter, Arial, sans-serif">
  
    <rect x="50" y="70" width="170" height="80" rx="14" fill="#ffffff" stroke="#2563eb" stroke-width="2" filter="url(#shadow)"/>
    <rect x="50" y="70" width="170" height="30" rx="14" fill="#2563eb"/>
    <text x="135.0" y="90" text-anchor="middle" font-size="13" font-weight="700" fill="white">Edge</text>
    <text x="64" y="122" font-size="12" fill="#0f172a">DNS, WAF, Ingress/Route</text>
    
    <rect x="285" y="70" width="200" height="80" rx="14" fill="#ffffff" stroke="#16a34a" stroke-width="2" filter="url(#shadow)"/>
    <rect x="285" y="70" width="200" height="30" rx="14" fill="#16a34a"/>
    <text x="385.0" y="90" text-anchor="middle" font-size="13" font-weight="700" fill="white">eaol-prod</text>
    <text x="299" y="122" font-size="12" fill="#0f172a">API, UI, workers</text>
    
    <rect x="550" y="70" width="200" height="80" rx="14" fill="#ffffff" stroke="#334155" stroke-width="2" filter="url(#shadow)"/>
    <rect x="550" y="70" width="200" height="30" rx="14" fill="#334155"/>
    <text x="650.0" y="90" text-anchor="middle" font-size="13" font-weight="700" fill="white">eaol-data</text>
    <text x="564" y="122" font-size="12" fill="#0f172a">Postgres, Neo4j, Kafka</text>
    
    <rect x="815" y="70" width="170" height="80" rx="14" fill="#ffffff" stroke="#dc2626" stroke-width="2" filter="url(#shadow)"/>
    <rect x="815" y="70" width="170" height="30" rx="14" fill="#dc2626"/>
    <text x="900.0" y="90" text-anchor="middle" font-size="13" font-weight="700" fill="white">External SI</text>
    <text x="829" y="122" font-size="12" fill="#0f172a">ERP, CRM, ITSM, BI</text>
    
    <rect x="285" y="220" width="200" height="80" rx="14" fill="#ffffff" stroke="#7c3aed" stroke-width="2" filter="url(#shadow)"/>
    <rect x="285" y="220" width="200" height="30" rx="14" fill="#7c3aed"/>
    <text x="385.0" y="240" text-anchor="middle" font-size="13" font-weight="700" fill="white">eaol-security</text>
    <text x="299" y="272" font-size="12" fill="#0f172a">Keycloak, Vault, OPA</text>
    
    <rect x="550" y="220" width="200" height="80" rx="14" fill="#ffffff" stroke="#ea580c" stroke-width="2" filter="url(#shadow)"/>
    <rect x="550" y="220" width="200" height="30" rx="14" fill="#ea580c"/>
    <text x="650.0" y="240" text-anchor="middle" font-size="13" font-weight="700" fill="white">eaol-observability</text>
    <text x="564" y="272" font-size="12" fill="#0f172a">OTel, Prometheus, SIEM</text>
    <line x1="220" y1="110" x2="285" y2="110" stroke="#64748b" stroke-width="2" marker-end="url(#arrow)"/><line x1="485" y1="110" x2="550" y2="110" stroke="#64748b" stroke-width="2" marker-end="url(#arrow)"/><line x1="750" y1="110" x2="815" y2="110" stroke="#64748b" stroke-width="2" marker-end="url(#arrow)"/><line x1="385" y1="150" x2="385" y2="220" stroke="#64748b" stroke-width="2" marker-end="url(#arrow)"/><text x="385.0" y="179.0" text-anchor="middle" font-size="11" fill="#475569">secrets/policy</text><line x1="650" y1="150" x2="650" y2="220" stroke="#64748b" stroke-width="2" marker-end="url(#arrow)"/><text x="650.0" y="179.0" text-anchor="middle" font-size="11" fill="#475569">logs/metrics</text><text x="512" y="350" text-anchor="middle" font-size="14" fill="#475569">Compatible Kubernetes standard, Private Cloud et OKD/OpenShift avec images non-root, NetworkPolicies et GitOps.</text>
  </g>
</svg>