<svg xmlns="http://www.w3.org/2000/svg" width="1024" height="360" viewBox="0 0 1024 360">
  <defs>
    <filter id="shadow" x="-20%" y="-20%" width="140%" height="140%">
      <feDropShadow dx="0" dy="3" stdDeviation="4" flood-color="#0f172a" flood-opacity="0.15"/>
    </filter>
    <marker id="arrow" viewBox="0 0 10 10" refX="9" refY="5" markerWidth="7" markerHeight="7" orient="auto-start-reverse">
      <path d="M 0 0 L 10 5 L 0 10 z" fill="#64748b"/>
    </marker>
  </defs>
  <rect width="100%" height="100%" fill="#f8fafc"/>
  <text x="512.0" y="34" text-anchor="middle" font-family="Inter, Arial, sans-serif" font-size="22" font-weight="800" fill="#0f172a">EAOL Enterprise Integration Flow</text>
  <g font-family="Inter, Arial, sans-serif">
  
    <rect x="40" y="75" width="170" height="80" rx="14" fill="#ffffff" stroke="#dc2626" stroke-width="2" filter="url(#shadow)"/>
    <rect x="40" y="75" width="170" height="30" rx="14" fill="#dc2626"/>
    <text x="125.0" y="95" text-anchor="middle" font-size="13" font-weight="700" fill="white">Client SI</text>
    <text x="54" y="127" font-size="12" fill="#0f172a">ERP • CRM • ITSM • BI</text>
    
    <rect x="280" y="75" width="170" height="80" rx="14" fill="#ffffff" stroke="#0891b2" stroke-width="2" filter="url(#shadow)"/>
    <rect x="280" y="75" width="170" height="30" rx="14" fill="#0891b2"/>
    <text x="365.0" y="95" text-anchor="middle" font-size="13" font-weight="700" fill="white">Connectors</text>
    <text x="294" y="127" font-size="12" fill="#0f172a">API • CDC • Batch • Webhooks</text>
    
    <rect x="520" y="75" width="170" height="80" rx="14" fill="#ffffff" stroke="#2563eb" stroke-width="2" filter="url(#shadow)"/>
    <rect x="520" y="75" width="170" height="30" rx="14" fill="#2563eb"/>
    <text x="605.0" y="95" text-anchor="middle" font-size="13" font-weight="700" fill="white">Canonical Model</text>
    <text x="534" y="127" font-size="12" fill="#0f172a">Normalize • Validate • Map</text>
    
    <rect x="760" y="75" width="200" height="80" rx="14" fill="#ffffff" stroke="#ea580c" stroke-width="2" filter="url(#shadow)"/>
    <rect x="760" y="75" width="200" height="30" rx="14" fill="#ea580c"/>
    <text x="860.0" y="95" text-anchor="middle" font-size="13" font-weight="700" fill="white">EAOL Intelligence</text>
    <text x="774" y="127" font-size="12" fill="#0f172a">Graph • Vector • Reasoning</text>
    
    <rect x="280" y="225" width="170" height="80" rx="14" fill="#ffffff" stroke="#7c3aed" stroke-width="2" filter="url(#shadow)"/>
    <rect x="280" y="225" width="170" height="30" rx="14" fill="#7c3aed"/>
    <text x="365.0" y="245" text-anchor="middle" font-size="13" font-weight="700" fill="white">Security Review</text>
    <text x="294" y="277" font-size="12" fill="#0f172a">SSO • scopes • DPA</text>
    
    <rect x="520" y="225" width="170" height="80" rx="14" fill="#ffffff" stroke="#16a34a" stroke-width="2" filter="url(#shadow)"/>
    <rect x="520" y="225" width="170" height="30" rx="14" fill="#16a34a"/>
    <text x="605.0" y="245" text-anchor="middle" font-size="13" font-weight="700" fill="white">Pilot Read-only</text>
    <text x="534" y="277" font-size="12" fill="#0f172a">Measure ROI safely</text>
    
    <rect x="760" y="225" width="200" height="80" rx="14" fill="#ffffff" stroke="#334155" stroke-width="2" filter="url(#shadow)"/>
    <rect x="760" y="225" width="200" height="30" rx="14" fill="#334155"/>
    <text x="860.0" y="245" text-anchor="middle" font-size="13" font-weight="700" fill="white">Approved Actions</text>
    <text x="774" y="277" font-size="12" fill="#0f172a">BPMN • HITL • write-back</text>
    <line x1="210" y1="115" x2="280" y2="115" stroke="#64748b" stroke-width="2" marker-end="url(#arrow)"/><line x1="450" y1="115" x2="520" y2="115" stroke="#64748b" stroke-width="2" marker-end="url(#arrow)"/><line x1="690" y1="115" x2="760" y2="115" stroke="#64748b" stroke-width="2" marker-end="url(#arrow)"/><line x1="365" y1="155" x2="365" y2="225" stroke="#64748b" stroke-width="2" marker-end="url(#arrow)"/><line x1="450" y1="265" x2="520" y2="265" stroke="#64748b" stroke-width="2" marker-end="url(#arrow)"/><line x1="690" y1="265" x2="760" y2="265" stroke="#64748b" stroke-width="2" marker-end="url(#arrow)"/><line x1="860" y1="225" x2="860" y2="155" stroke="#64748b" stroke-width="2" marker-end="url(#arrow)"/><text x="860.0" y="184.0" text-anchor="middle" font-size="11" fill="#475569">expand</text>
  </g>
</svg>